<svg width="107" height="50" viewBox="0 0 107 50" fill="none" xmlns="http://www.w3.org/2000/svg">
<path d="M97.2235 28.3602C97.6507 28.1827 98.211 28.3466 98.4733 28.8437C98.7005 29.3481 98.4182 29.9052 98.1218 30.2359C97.6563 30.8259 96.7677 30.2822 96.7421 29.4689C96.6848 29.0112 96.8777 28.5143 97.2235 28.3602ZM18.9351 20.9779C18.3239 21.7984 17.8369 22.7778 17.527 23.8463C17.8026 23.7525 18.0282 23.5126 18.2674 23.3225C18.9975 22.7086 19.6158 21.9077 20.232 21.1175C20.5005 20.7472 20.7773 20.299 20.7651 19.7637C20.0512 19.7534 19.4247 20.3557 18.9351 20.9779ZM18.4706 18.6184C19.1034 18.0638 19.8311 17.6072 20.6082 17.5873C21.2728 17.5696 21.9656 18.0378 22.2388 18.8479C22.4741 19.4992 22.466 20.271 22.2428 20.9261C21.8915 22.004 21.2386 22.8514 20.5715 23.6119C19.5625 24.7464 18.4116 25.694 17.1317 26.2169C17.146 27.0159 17.0696 27.9015 17.4607 28.5836C17.7995 29.0681 18.3821 29.1301 18.8342 28.913C19.4383 28.5555 20.044 28.1764 20.5628 27.6296C22.0555 26.1055 23.3769 24.3207 24.6426 22.4896C25.2961 21.5483 25.8668 20.5035 26.6063 19.6663C26.824 19.4081 27.1738 19.2355 27.4449 19.4596C27.6991 19.6748 27.68 20.1325 27.5954 20.4632C27.4385 21.0875 27.1523 21.6401 26.8566 22.1683C25.3201 24.8221 23.5794 27.2845 21.6291 29.4369C20.6542 30.4681 19.5244 31.4759 18.2164 31.4933C17.5013 31.5429 16.8144 31.1214 16.2899 30.5149C15.5019 29.4153 15.1408 27.8849 15.1726 26.3998C14.9615 26.3275 14.7327 26.2333 14.607 25.9825C14.4069 25.6351 14.5304 25.1443 14.7438 24.8612C14.9463 24.7176 15.1829 24.6897 15.4023 24.6083C15.5648 24.0707 15.6757 23.5084 15.8525 22.9785C16.4127 21.268 17.2975 19.7027 18.4706 18.6184ZM67.623 18.0946C67.8312 17.6947 68.0582 17.2466 68.4328 17.0922C68.7981 16.9423 69.2999 17.1531 69.401 17.6762C69.4755 17.9781 69.3551 18.2722 69.2401 18.5267C68.9444 19.1601 68.6838 19.8194 68.4398 20.4892C67.3918 22.9628 66.3807 25.4639 65.3451 27.9466C64.8998 28.9524 64.4956 30.022 63.8411 30.8341C63.4826 31.3001 62.9497 31.5132 62.4522 31.4418C61.7845 31.2825 61.4343 30.4363 61.2567 29.6666C61.0119 28.5503 60.9603 27.3826 60.8699 26.2333C60.2272 27.6688 59.5303 29.0949 58.593 30.2409C58.071 30.8692 57.3857 31.4366 56.6412 31.2628C55.9918 31.1574 55.5636 30.3981 55.3644 29.6488C55.0329 28.569 55.083 27.3911 55.0814 26.2521C55.0953 24.7021 55.1197 23.1518 55.1501 21.6031C55.1428 21.5141 55.1278 21.3354 55.1204 21.2464C54.8831 21.3869 54.7343 21.6794 54.5577 21.9161C53.5449 23.4406 52.7169 25.1527 51.9414 26.8908C51.3125 28.2887 50.7641 29.746 50.1172 31.1317C49.8531 31.6216 49.4865 32.1681 48.9821 32.1466C48.4329 32.1589 47.95 31.5853 47.8501 30.9022C47.7882 29.4368 47.9946 27.9818 48.2568 26.5632C48.6498 24.4736 49.1926 22.4369 49.7441 20.4105C49.9178 19.7853 50.0892 19.1571 50.2931 18.5473C50.5291 17.7928 51.4298 17.5811 51.8282 18.2342C52.1436 18.6744 52.0458 19.3287 51.9468 19.8555C51.6423 21.3448 51.236 22.7954 50.9466 24.2907C51.7333 22.8369 52.5081 21.3621 53.4349 20.0488C53.8158 19.5259 54.2597 19.0692 54.7634 18.7623C55.1683 18.5213 55.6649 18.5358 56.0437 18.854C56.5336 19.2366 56.776 19.9684 56.8771 20.67C57.0367 21.7944 56.9831 22.9443 56.9775 24.0821C56.96 25.6662 56.8117 27.2896 57.1115 28.8437C57.2007 28.7892 57.2939 28.7395 57.3729 28.6569C58.0121 27.9603 58.507 27.0778 58.9964 26.2088C59.6444 25.0253 60.2618 23.804 60.7522 22.498C60.8884 21.6309 60.7935 20.7081 61.0177 19.8576C61.1244 19.5736 61.2925 19.316 61.4991 19.1455C61.9101 19.0425 62.4114 19.2675 62.5742 19.8029C62.7383 20.3754 62.727 20.9987 62.758 21.5998C62.7957 22.8059 62.8785 24.0088 62.9741 25.2084C63.0443 26.0558 63.0555 26.9147 63.1926 27.7505C63.6227 27.0365 63.9392 26.2221 64.3004 25.4503C65.425 23.0115 66.4356 20.4848 67.623 18.0946ZM72.8458 11.4317C73.4609 11.2567 74.0253 12.1081 73.8819 12.8772C73.7997 13.2927 73.5879 13.7967 73.2123 13.8063C72.6297 13.7339 72.1755 12.9589 72.2838 12.2086C72.3252 11.8313 72.5628 11.5183 72.8458 11.4317ZM46.4971 8.86463C48.5333 8.43795 50.5777 7.81369 52.6546 7.99775C53.2451 8.04833 53.9083 8.29294 54.2272 8.99712C54.5268 9.57333 54.2032 10.4553 53.6869 10.5613C53.3847 10.5262 53.3345 10.0127 53.0427 9.95151C52.5733 9.80618 52.0857 9.88876 51.6098 9.92908C49.9503 10.1314 48.2958 10.4592 46.6795 10.9881C46.3909 11.0348 46.442 11.4947 46.3781 11.7704C46.1457 13.8877 45.7948 15.9802 45.5837 18.1019C45.2495 21.0574 44.9964 24.0252 44.7222 26.9899C44.6209 28.2237 44.3825 29.4659 44.5389 30.7103C44.6232 31.5616 44.5219 32.4151 44.393 33.2489C45.0036 33.1974 45.5972 32.9907 46.1991 32.8544C47.2509 32.6116 48.315 32.4597 49.3798 32.3533C49.8291 32.3397 50.3043 32.3295 50.7228 32.5764C50.9499 32.716 51.1713 33.0911 50.9945 33.4082C50.7148 33.8505 50.3035 34.1627 49.8683 34.268C49.0499 34.513 48.2146 34.6411 47.3969 34.8872C45.614 35.3314 43.8295 35.787 42.0855 36.4486C41.539 36.6686 40.9739 36.8567 40.4773 37.2379C40.2214 37.4083 40.1394 37.8436 39.8548 37.9572C39.2707 38.1825 38.6108 37.4828 38.684 36.6932C38.7502 36.0114 39.1974 35.5505 39.6093 35.1948C40.5282 34.4095 41.6371 34.2018 42.6587 33.7421C42.4506 31.1846 42.6667 28.6103 42.822 26.0568C42.9305 23.9861 43.2 21.9376 43.4613 19.8917C43.823 17.0873 44.307 14.3125 44.7603 11.5318C41.3924 12.3491 38.276 14.3052 34.9701 15.4173C34.2781 15.6032 33.5124 15.8791 32.8389 15.4667C32.3584 15.1817 32.2316 14.3188 32.5001 13.7639C32.6764 13.3991 32.9736 13.1523 33.2931 13.0467C34.3483 12.6694 35.4554 12.6809 36.5386 12.5868C39.2237 11.4317 41.8783 10.1066 44.6615 9.39067C44.9095 9.29751 45.2443 9.33171 45.3789 8.98754C45.6028 8.50396 46.2396 8.34891 46.4971 8.86463ZM11.9816 7.11723C12.1902 6.803 12.5411 6.58414 12.8589 6.73466C13.2814 6.9508 13.5787 7.50153 13.6178 8.08433C13.6503 8.62906 13.6449 9.17553 13.6503 9.72113C14.6943 9.68506 15.7369 9.57759 16.7802 9.52276C17.8934 9.39799 19.0054 9.23755 20.1236 9.17999C21.0785 9.13527 22.0635 8.96598 22.9951 9.33384C23.2342 9.39679 23.3936 9.84431 23.2001 10.0862C22.9457 10.4571 22.5545 10.5706 22.2087 10.7331C21.468 11.0781 20.6752 11.1143 19.8995 11.2031C18.3558 11.3375 16.8152 11.515 15.2732 11.6693C14.7032 11.73 14.1301 11.7496 13.5637 11.8583C12.9124 19.8173 12.5864 27.8136 12.3361 35.8076C12.3386 36.3689 12.172 37.0395 11.7217 37.233C11.3463 37.4447 10.8832 37.1616 10.7413 36.6747C10.429 35.5557 10.5079 34.3465 10.4982 33.1789C10.5056 31.42 10.4816 29.6612 10.515 27.9036C10.6794 23.2822 10.837 18.6557 11.2211 14.0531C11.2745 13.3661 11.3526 12.683 11.3892 11.9936C9.62789 12.0917 7.86505 12.1054 6.10194 12.096C5.25562 12.1154 4.41007 12.0278 3.56852 11.9213C2.6583 11.786 1.72171 11.6412 0.889655 11.1123C0.577969 10.8877 0.227433 10.6533 0.0735657 10.2112C-0.103397 9.72233 0.0448245 9.02567 0.454435 8.82737C1.02279 8.49158 1.73218 8.46064 2.27887 8.88C2.45419 9.01868 2.59292 9.25425 2.52035 9.53427C2.95157 9.75114 3.42584 9.70057 3.87677 9.77902C4.3008 9.81336 4.72016 9.93634 5.14635 9.92789C6.79537 9.91877 8.44443 9.9384 10.0934 9.91358C10.5979 9.89907 11.1041 9.90519 11.6069 9.83605C11.5791 9.26756 11.7001 8.71684 11.7504 8.15673C11.7965 7.80404 11.7934 7.4043 11.9816 7.11723ZM88.8328 20.4571C87.9857 21.3321 87.3559 22.5423 86.9709 23.8496C87.9393 23.3052 88.7171 22.3294 89.4663 21.3881C89.8153 20.953 90.1875 20.4456 90.2227 19.7844C89.7069 19.6923 89.2417 20.1044 88.8328 20.4571ZM82.335 3.8723C81.9268 4.86954 81.5864 5.91024 81.3108 6.97981C80.8707 8.67232 80.5068 10.4042 80.2642 12.1641C80.4179 11.9274 80.5096 11.6394 80.6131 11.3643C80.909 10.5625 81.1847 9.74921 81.4581 8.9339C81.9962 7.354 82.3787 5.6943 82.7086 4.02216C82.7873 3.60792 82.8631 3.18742 82.8593 2.75721C82.6295 3.08181 82.494 3.49013 82.335 3.8723ZM81.9388 0.987248C82.2903 0.460345 82.7691 -0.0472587 83.3389 0.00351508C83.7462 0.0210829 84.1234 0.365053 84.2722 0.858217C84.494 1.57005 84.505 2.36546 84.4212 3.11788C84.0548 6.10122 83.2625 8.96478 82.3292 11.7229C82.1666 12.2283 81.9642 12.7109 81.8231 13.2265C83.1878 13.0467 84.5328 12.6996 85.8832 12.4006C87.9179 11.9461 89.9397 11.2795 92.0152 11.2443C92.2985 11.2228 92.5954 11.508 92.608 11.8871C92.5515 12.2571 92.2575 12.4142 92.02 12.5474C92.1809 13.2544 91.7625 13.8371 91.3793 14.2526C90.892 14.7464 90.3558 15.1494 89.8362 15.5793C89.3851 15.9175 88.9403 16.3059 88.4287 16.4661C88.0331 16.6025 87.5455 16.1727 87.599 15.6114C87.6301 15.1494 87.9082 14.7888 88.1975 14.5523C88.5466 14.2268 88.8901 13.8898 89.2375 13.5611C86.488 14.2908 83.7124 14.8469 80.9615 15.5744C80.6801 16.0517 80.5176 16.6171 80.2922 17.1356C80.0475 17.7474 79.7772 18.3417 79.5374 18.9566C79.3772 19.3544 79.389 19.8141 79.3571 20.2482C79.2394 22.1404 79.1525 24.0512 79.3342 25.9411C79.4344 26.9527 79.626 27.979 80.0634 28.8407C80.2286 29.1662 80.5281 29.4629 80.8438 29.3203C81.608 29.0142 82.154 28.2167 82.6967 27.4994C83.0552 26.9941 83.3886 26.4586 83.7143 25.9184C83.857 25.7022 83.952 25.4461 84.027 25.1806C84.0969 24.8478 84.3941 24.7609 84.5083 24.4656C84.7768 23.9198 85.1555 23.4651 85.3379 22.8535C85.7867 21.5059 86.4506 20.277 87.2794 19.2778C87.9185 18.5213 88.6846 17.9106 89.535 17.6608C90.1263 17.4852 90.7926 17.6132 91.2644 18.1319C91.8295 18.7498 91.9937 19.8504 91.7424 20.7338C91.4746 21.6991 90.9424 22.4936 90.375 23.1881C89.2838 24.5139 88.0093 25.629 86.5741 26.2181C86.5956 26.9354 86.5158 27.7083 86.7995 28.3623C86.9846 28.8831 87.4749 29.0744 87.8867 29.0226C88.1998 29.0142 88.4709 28.7922 88.7467 28.6269C89.8817 27.9532 90.7847 26.804 91.6931 25.7252C92.844 24.2877 93.9366 22.7717 94.9497 21.1701C95.3322 20.5994 95.7062 20.0075 96.1706 19.5446C96.4354 19.2818 96.8499 19.2818 97.0505 19.6602C97.0227 18.3789 97.1096 17.1006 97.1072 15.8193C97.1047 14.575 97.2421 13.3402 97.2573 12.0981C97.3207 10.2018 97.3352 8.30259 97.3758 6.4064C97.3646 5.6374 98.2559 5.38826 98.5385 6.02376C98.9037 6.78337 98.926 7.71627 98.984 8.58242C99.0304 10.857 98.9674 13.1326 98.9029 15.4058C98.8478 17.6917 98.6484 19.9672 98.4915 22.2435C98.4644 22.7469 98.1695 23.248 97.7574 23.2511C97.4092 23.1904 97.0951 22.8008 97.0674 22.3378C97.0241 21.7136 97.0561 21.0853 97.0473 20.4592C96.8465 21.1804 96.5101 21.819 96.1522 22.4226C95.1234 24.17 94.0125 25.8378 92.8018 27.3777C91.817 28.6155 90.8179 29.8741 89.617 30.7587C88.7969 31.3581 87.8101 31.6845 86.8807 31.3766C86.3142 31.1141 85.758 30.6999 85.4257 30.0291C85.0558 29.3366 84.8008 28.5421 84.6867 27.7132C84.0889 28.6526 83.4568 29.5651 82.7344 30.3445C82.1132 30.9086 81.3949 31.4087 80.618 31.3951C79.8082 31.3539 79.114 30.6336 78.6981 29.7738C77.9497 28.2363 77.7204 26.3959 77.5873 24.6174C76.8363 25.9877 76.0067 27.2866 75.095 28.4822C74.4335 29.3666 73.7059 30.214 72.8235 30.7081C72.0144 31.1484 71.0063 31.165 70.2786 30.4665C69.6762 29.8689 69.3206 28.9358 69.1652 27.9902C68.8822 26.3162 69.0273 24.5553 69.4681 22.9495C69.7073 22.0536 69.967 21.1629 70.3107 20.3248C70.49 19.8991 70.7217 19.4516 71.0933 19.2894C71.7133 19.0081 72.4057 19.8535 72.2674 20.6721C72.1684 21.2196 71.9467 21.7115 71.7881 22.2325C71.2664 23.8196 70.819 25.5276 70.9528 27.2793C70.9992 27.8282 71.1053 28.4595 71.4868 28.7819C71.8307 29.0278 72.2273 28.7807 72.5455 28.5773C73.5112 27.893 74.3009 26.8723 75.0542 25.848C75.9548 24.6153 76.7254 23.2396 77.4971 21.8717C77.5973 21.5977 77.5616 21.2776 77.5935 20.9831C77.65 19.3512 77.953 17.7558 78.0678 16.1345C76.5087 16.4022 74.946 16.679 73.3719 16.7525C72.5455 16.771 71.643 16.81 70.9187 16.2097C70.4858 15.8729 70.3473 15.0112 70.6987 14.5193C71.0047 14.1545 71.4615 14.105 71.8575 14.1565C72.2513 14.1866 72.4762 14.7661 72.889 14.7052C74.5218 14.6494 76.1479 14.4066 77.765 14.1154C77.9578 14.0585 78.181 14.0716 78.3481 13.924C78.6026 12.6364 78.774 11.3251 79.0186 10.0347C79.3907 8.03588 79.8386 6.05278 80.4811 4.16989C80.8707 3.04242 81.3288 1.94217 81.9388 0.987248Z" fill="#A17562"/>
<path d="M9.165 44V40.79H8.07V40.305H10.76V40.79H9.665V44H9.165ZM13.7904 44H13.2454L12.8704 43.04H11.4654L11.0904 44H10.5454L12.0404 40.305H12.3104L13.7904 44ZM12.7004 42.57L12.1704 41.175L11.6354 42.57H12.7004ZM16.9045 44H16.2895L15.3295 42.5H14.8195V44H14.3195V40.305H15.5745C15.9445 40.305 16.2295 40.415 16.4295 40.635C16.6328 40.8483 16.7345 41.105 16.7345 41.405C16.7345 41.655 16.6578 41.8783 16.5045 42.075C16.3545 42.2717 16.1445 42.4 15.8745 42.46L16.9045 44ZM15.5795 40.78H14.8195V42.03H15.4795C15.7195 42.03 15.9028 41.9717 16.0295 41.855C16.1595 41.7383 16.2245 41.5867 16.2245 41.4C16.2245 41.2167 16.1678 41.0683 16.0545 40.955C15.9412 40.8383 15.7828 40.78 15.5795 40.78ZM18.1826 44.06C17.7526 44.06 17.3993 43.9017 17.1226 43.585L17.4276 43.22C17.6276 43.4633 17.8793 43.585 18.1826 43.585C18.406 43.585 18.5843 43.515 18.7176 43.375C18.851 43.2317 18.9176 43.0317 18.9176 42.775V40.305H19.4176V42.8C19.4176 43.2 19.3026 43.51 19.0726 43.73C18.8493 43.95 18.5526 44.06 18.1826 44.06ZM22.6107 44H20.3107V40.305H22.6107V40.78H20.8107V41.885H22.4757V42.36H20.8107V43.525H22.6107V44ZM24.0576 44V40.79H22.9626V40.305H25.6526V40.79H24.5576V44H24.0576ZM28.6829 44H28.1379L27.7629 43.04H26.3579L25.9829 44H25.4379L26.9329 40.305H27.2029L28.6829 44ZM27.5929 42.57L27.0629 41.175L26.5279 42.57H27.5929ZM30.0493 44.06C29.776 44.06 29.526 43.995 29.2993 43.865C29.076 43.7317 28.906 43.5433 28.7893 43.3L29.1593 42.995C29.3593 43.3883 29.6543 43.585 30.0443 43.585C30.251 43.585 30.416 43.5317 30.5393 43.425C30.6626 43.3183 30.7243 43.185 30.7243 43.025C30.7243 42.8283 30.596 42.6567 30.3393 42.51C30.2926 42.4867 30.166 42.4267 29.9593 42.33C29.7893 42.2533 29.651 42.1833 29.5443 42.12C29.1743 41.8867 28.9893 41.5933 28.9893 41.24C28.9893 40.9567 29.091 40.72 29.2943 40.53C29.4976 40.3367 29.7676 40.24 30.1043 40.24C30.5643 40.24 30.926 40.4217 31.1893 40.785L30.8543 41.105C30.6543 40.8417 30.406 40.71 30.1093 40.71C29.9393 40.71 29.7993 40.7567 29.6893 40.85C29.5793 40.94 29.5243 41.06 29.5243 41.21C29.5243 41.4033 29.6293 41.5617 29.8393 41.685C29.926 41.7383 30.0693 41.8117 30.2693 41.905C30.4793 42.005 30.6343 42.0833 30.7343 42.14C31.091 42.3567 31.2693 42.6433 31.2693 43C31.2693 43.3167 31.1526 43.5717 30.9193 43.765C30.686 43.9617 30.396 44.06 30.0493 44.06ZM34.5019 44H33.1769V40.305H34.5519C35.0752 40.305 35.4886 40.4717 35.7919 40.805C36.0986 41.1417 36.2519 41.5933 36.2519 42.16C36.2519 42.73 36.0952 43.1783 35.7819 43.505C35.4719 43.835 35.0452 44 34.5019 44ZM33.6769 40.78V43.525H34.5219C34.8986 43.525 35.1952 43.3967 35.4119 43.14C35.6252 42.8833 35.7319 42.5517 35.7319 42.145C35.7319 41.745 35.6252 41.4183 35.4119 41.165C35.1952 40.9083 34.8986 40.78 34.5219 40.78H33.6769ZM36.966 44V40.305H37.466V44H36.966ZM40.0516 44.055C39.5083 44.055 39.0566 43.875 38.6966 43.515C38.34 43.1517 38.1616 42.6983 38.1616 42.155C38.1616 41.6017 38.3483 41.145 38.7216 40.785C39.095 40.4217 39.5483 40.24 40.0816 40.24C40.3883 40.24 40.6783 40.3017 40.9516 40.425C41.2283 40.5483 41.4516 40.7133 41.6216 40.92L41.2666 41.245C40.9566 40.8983 40.5633 40.725 40.0866 40.725C39.69 40.725 39.3533 40.86 39.0766 41.13C38.8066 41.4 38.6716 41.7433 38.6716 42.16C38.6716 42.5667 38.8066 42.905 39.0766 43.175C39.35 43.4417 39.6816 43.575 40.0716 43.575C40.2883 43.575 40.5016 43.5283 40.7116 43.435C40.9216 43.3417 41.1033 43.215 41.2566 43.055V42.32H40.0216V41.86H41.7266V43.275C41.2766 43.795 40.7183 44.055 40.0516 44.055ZM42.4543 44V40.305H42.9543V44H42.4543ZM44.5849 44V40.79H43.4899V40.305H46.1799V40.79H45.0849V44H44.5849ZM49.2103 44H48.6653L48.2903 43.04H46.8853L46.5103 44H45.9653L47.4603 40.305H47.7303L49.2103 44ZM48.1203 42.57L47.5903 41.175L47.0553 42.57H48.1203ZM52.2244 44H49.7394V40.305H50.2394V43.515H52.2244V44ZM55.0521 44H52.7521V40.305H55.0521V40.78H53.2521V41.885H54.9171V42.36H53.2521V43.525H55.0521V44ZM56.729 44.06C56.4557 44.06 56.2057 43.995 55.979 43.865C55.7557 43.7317 55.5857 43.5433 55.469 43.3L55.839 42.995C56.039 43.3883 56.334 43.585 56.724 43.585C56.9307 43.585 57.0957 43.5317 57.219 43.425C57.3423 43.3183 57.404 43.185 57.404 43.025C57.404 42.8283 57.2757 42.6567 57.019 42.51C56.9723 42.4867 56.8457 42.4267 56.639 42.33C56.469 42.2533 56.3307 42.1833 56.224 42.12C55.854 41.8867 55.669 41.5933 55.669 41.24C55.669 40.9567 55.7707 40.72 55.974 40.53C56.1773 40.3367 56.4473 40.24 56.784 40.24C57.244 40.24 57.6057 40.4217 57.869 40.785L57.534 41.105C57.334 40.8417 57.0857 40.71 56.789 40.71C56.619 40.71 56.479 40.7567 56.369 40.85C56.259 40.94 56.204 41.06 56.204 41.21C56.204 41.4033 56.309 41.5617 56.519 41.685C56.6057 41.7383 56.749 41.8117 56.949 41.905C57.159 42.005 57.314 42.0833 57.414 42.14C57.7707 42.3567 57.949 42.6433 57.949 43C57.949 43.3167 57.8323 43.5717 57.599 43.765C57.3657 43.9617 57.0757 44.06 56.729 44.06ZM62.1566 44H59.8566V40.305H62.1566V40.78H60.3566V41.885H62.0216V42.36H60.3566V43.525H62.1566V44ZM64.1388 44V40.305H64.6388V44H64.1388ZM68.0445 42.94V40.305H68.5395V44H68.2795L66.0645 41.38V44H65.5695V40.305H65.7945L68.0445 42.94ZM70.1709 44V40.79H69.0759V40.305H71.7659V40.79H70.6709V44H70.1709ZM74.6029 44H72.3029V40.305H74.6029V40.78H72.8029V41.885H74.4679V42.36H72.8029V43.525H74.6029V44ZM77.9348 44H77.3198L76.3598 42.5H75.8498V44H75.3498V40.305H76.6048C76.9748 40.305 77.2598 40.415 77.4598 40.635C77.6631 40.8483 77.7648 41.105 77.7648 41.405C77.7648 41.655 77.6881 41.8783 77.5348 42.075C77.3848 42.2717 77.1748 42.4 76.9048 42.46L77.9348 44ZM76.6098 40.78H75.8498V42.03H76.5098C76.7498 42.03 76.9331 41.9717 77.0598 41.855C77.1898 41.7383 77.2548 41.5867 77.2548 41.4C77.2548 41.2167 77.1981 41.0683 77.0848 40.955C76.9714 40.8383 76.8131 40.78 76.6098 40.78ZM81.3929 44H80.8479L80.4729 43.04H79.0679L78.6929 44H78.1479L79.6429 40.305H79.9129L81.3929 44ZM80.3029 42.57L79.7729 41.175L79.2379 42.57H80.3029ZM83.4601 44.055C82.9267 44.055 82.4767 43.8783 82.1101 43.525C81.7434 43.1683 81.5601 42.715 81.5601 42.165C81.5601 41.605 81.7467 41.145 82.1201 40.785C82.4934 40.4217 82.9451 40.24 83.4751 40.24C83.8117 40.24 84.1217 40.315 84.4051 40.465C84.6884 40.6083 84.9101 40.8033 85.0701 41.05L84.7001 41.36C84.3867 40.9367 83.9817 40.725 83.4851 40.725C83.0917 40.725 82.7584 40.8617 82.4851 41.135C82.2117 41.4083 82.0751 41.7533 82.0751 42.17C82.0751 42.5767 82.2084 42.9133 82.4751 43.18C82.7417 43.4433 83.0767 43.575 83.4801 43.575C83.7267 43.575 83.9567 43.52 84.1701 43.41C84.3834 43.3 84.5667 43.1467 84.7201 42.95L85.0801 43.255C84.9034 43.5017 84.6717 43.6967 84.3851 43.84C84.1017 43.9833 83.7934 44.055 83.4601 44.055ZM86.3769 44V40.79H85.2819V40.305H87.9719V40.79H86.8769V44H86.3769ZM88.5089 44V40.305H89.0089V44H88.5089ZM91.2546 43.14L92.4196 40.305H92.9646L91.3946 44H91.1096L89.5146 40.305H90.0846L91.2546 43.14ZM95.9974 44H95.4524L95.0774 43.04H93.6724L93.2974 44H92.7524L94.2474 40.305H94.5174L95.9974 44ZM94.9074 42.57L94.3774 41.175L93.8424 42.57H94.9074ZM97.3638 44.06C97.0904 44.06 96.8404 43.995 96.6138 43.865C96.3904 43.7317 96.2204 43.5433 96.1038 43.3L96.4738 42.995C96.6738 43.3883 96.9688 43.585 97.3588 43.585C97.5654 43.585 97.7304 43.5317 97.8538 43.425C97.9771 43.3183 98.0388 43.185 98.0388 43.025C98.0388 42.8283 97.9104 42.6567 97.6538 42.51C97.6071 42.4867 97.4804 42.4267 97.2738 42.33C97.1038 42.2533 96.9654 42.1833 96.8588 42.12C96.4888 41.8867 96.3038 41.5933 96.3038 41.24C96.3038 40.9567 96.4054 40.72 96.6088 40.53C96.8121 40.3367 97.0821 40.24 97.4188 40.24C97.8788 40.24 98.2404 40.4217 98.5038 40.785L98.1688 41.105C97.9688 40.8417 97.7204 40.71 97.4238 40.71C97.2538 40.71 97.1138 40.7567 97.0038 40.85C96.8938 40.94 96.8388 41.06 96.8388 41.21C96.8388 41.4033 96.9438 41.5617 97.1538 41.685C97.2404 41.7383 97.3838 41.8117 97.5838 41.905C97.7938 42.005 97.9488 42.0833 98.0488 42.14C98.4054 42.3567 98.5838 42.6433 98.5838 43C98.5838 43.3167 98.4671 43.5717 98.2338 43.765C98.0004 43.9617 97.7104 44.06 97.3638 44.06Z" fill="#A17562"/>
</svg>
